# xmcd CD database file
#
# Track frame offsets:
#	150
#	14515
#	33253
#	47955
#	60805
#	71530
#	92998
#	103983
#	121543
#	136170
#	173513
#	186263
#	204450
#
# Disc length: 2942 seconds
#
# Revision: 0
# Processed by: cddbd v1.5.2PL0 Copyright (c) Steve Scherf et al.
# Submitted via: CDex 1.51
#
DISCID=aa0b7c0d
DTITLE=Blue Street Jazz Band - Just a Closer Walk
DYEAR=1991
DGENRE=Jazz
TTITLE0=Battle Hymn Goes Marching In
TTITLE1=Amazing Grace
TTITLE2=This World Is Not My Home
TTITLE3=When the Roll Is Called Up Yonder
TTITLE4=In the Garden
TTITLE5=Down By The Riverside
TTITLE6=Softly and Tenderly
TTITLE7=Since Jesus Came Into My Heart
TTITLE8=His Eye Is On The Sparrow
TTITLE9=Just a Closer Walk With Thee
TTITLE10=Mansion Over the Hilltop
TTITLE11=The Old Rugged Cross
TTITLE12=When the Saints Go Marching In
EXTD=YEAR: 1991
EXTT0=
EXTT1=
EXTT2=
EXTT3=
EXTT4=
EXTT5=
EXTT6=
EXTT7=
EXTT8=
EXTT9=
EXTT10=
EXTT11=
EXTT12=
PLAYORDER=
